RBDS08runT35_grf
version=1
nRows=37
nColumns=19
inDegrees=no
endheader
time	ground_force_r_vx	ground_force_r_vy	ground_force_r_vz	ground_force_r_px	ground_force_r_py	ground_force_r_pz	ground_force_r_mx	ground_force_r_my	ground_force_r_mz	ground_force_l_vx	ground_force_l_vy	ground_force_l_vz	ground_force_l_px	ground_force_l_py	ground_force_l_pz	ground_force_l_mx	ground_force_l_my	ground_force_l_mz
     14.99900000	   -229.54559516	   1545.40119976	    -47.40338758	      2.21774670	      0.00000000	      1.08315487	      0.00000000	      2.20861601	     -0.00000000	      0.00000000	      0.00000000	      0.00000000	      0.00000000	      0.00000000	      0.00000000	      0.00000000	      0.00000000	      0.00000000
     15.00000000	   -230.65839667	   1558.01518855	    -47.98429953	      2.21579397	      0.00000000	      1.08304268	      0.00000000	      2.15307999	     -0.00000000	      0.00000000	      0.00000000	      0.00000000	      0.00000000	      0.00000000	      0.00000000	      0.00000000	      0.00000000	      0.00000000
     15.00100000	   -231.18916344	   1569.01687416	    -48.47701604	      2.21372385	      0.00000000	      1.08291761	      0.00000000	      2.10148108	     -0.00000000	      0.00000000	      0.00000000	      0.00000000	      0.00000000	      0.00000000	      0.00000000	      0.00000000	      0.00000000	      0.00000000
     15.00200000	   -231.71993021	   1580.01855977	    -48.96973255	      2.21165372	      0.00000000	      1.08279254	      0.00000000	      2.04988216	     -0.00000000	      0.00000000	      0.00000000	      0.00000000	      0.00000000	      0.00000000	      0.00000000	      0.00000000	      0.00000000	      0.00000000
     15.00300000	   -232.25069698	   1591.02024538	    -49.46244905	      2.20958359	      0.00000000	      1.08266748	      0.00000000	      1.99828324	     -0.00000000	      0.00000000	      0.00000000	      0.00000000	      0.00000000	      0.00000000	      0.00000000	      0.00000000	      0.00000000	      0.00000000
     15.00400000	   -232.37059181	   1601.01821520	    -49.90283609	      2.20743458	      0.00000000	      1.08253659	      0.00000000	      1.94802325	     -0.00000000	      0.00000000	      0.00000000	      0.00000000	      0.00000000	      0.00000000	      0.00000000	      0.00000000	      0.00000000	      0.00000000
     15.00500000	   -232.28505069	   1610.51432712	    -50.31705840	      2.20524612	      0.00000000	      1.08240280	      0.00000000	      1.89843271	     -0.00000000	      0.00000000	      0.00000000	      0.00000000	      0.00000000	      0.00000000	      0.00000000	      0.00000000	      0.00000000	      0.00000000
     15.00600000	   -232.19950956	   1620.01043905	    -50.73128070	      2.20305766	      0.00000000	      1.08226901	      0.00000000	      1.84884217	     -0.00000000	      0.00000000	      0.00000000	      0.00000000	      0.00000000	      0.00000000	      0.00000000	      0.00000000	      0.00000000	      0.00000000
     15.00700000	   -231.90257999	   1629.03721006	    -51.12167715	      2.20083047	      0.00000000	      1.08213362	      0.00000000	      1.79945879	     -0.00000000	      0.00000000	      0.00000000	      0.00000000	      0.00000000	      0.00000000	      0.00000000	      0.00000000	      0.00000000	      0.00000000
     15.00800000	   -231.18287354	   1637.12529925	    -51.46442190	      2.19852581	      0.00000000	      1.08199502	      0.00000000	      1.75048972	     -0.00000000	      0.00000000	      0.00000000	      0.00000000	      0.00000000	      0.00000000	      0.00000000	      0.00000000	      0.00000000	      0.00000000
     15.00900000	   -230.46316710	   1645.21338844	    -51.80716664	      2.19622115	      0.00000000	      1.08185642	      0.00000000	      1.70152066	     -0.00000000	      0.00000000	      0.00000000	      0.00000000	      0.00000000	      0.00000000	      0.00000000	      0.00000000	      0.00000000	      0.00000000
     15.01000000	   -229.74346065	   1653.30147764	    -52.14991138	      2.19391648	      0.00000000	      1.08171782	      0.00000000	      1.65255159	     -0.00000000	      0.00000000	      0.00000000	      0.00000000	      0.00000000	      0.00000000	      0.00000000	      0.00000000	      0.00000000	      0.00000000
     15.01100000	   -228.38878227	   1660.06617098	    -52.42565214	      2.19150077	      0.00000000	      1.08157800	      0.00000000	      1.60335785	     -0.00000000	      0.00000000	      0.00000000	      0.00000000	      0.00000000	      0.00000000	      0.00000000	      0.00000000	      0.00000000	      0.00000000
     15.01200000	   -227.03410389	   1666.83086432	    -52.70139290	      2.18908506	      0.00000000	      1.08143817	      0.00000000	      1.55416411	     -0.00000000	      0.00000000	      0.00000000	      0.00000000	      0.00000000	      0.00000000	      0.00000000	      0.00000000	      0.00000000	      0.00000000
     15.01300000	   -225.67942551	   1673.59555766	    -52.97713365	      2.18666935	      0.00000000	      1.08129835	      0.00000000	      1.50497037	     -0.00000000	      0.00000000	      0.00000000	      0.00000000	      0.00000000	      0.00000000	      0.00000000	      0.00000000	      0.00000000	      0.00000000
     15.01400000	   -223.91209843	   1679.52426924	    -53.20970666	      2.18418495	      0.00000000	      1.08115979	      0.00000000	      1.45539182	     -0.00000000	      0.00000000	      0.00000000	      0.00000000	      0.00000000	      0.00000000	      0.00000000	      0.00000000	      0.00000000	      0.00000000
     15.01500000	   -221.93844700	   1685.03498993	    -53.42069580	      2.18166621	      0.00000000	      1.08102187	      0.00000000	      1.40562087	     -0.00000000	      0.00000000	      0.00000000	      0.00000000	      0.00000000	      0.00000000	      0.00000000	      0.00000000	      0.00000000	      0.00000000
     15.01600000	   -219.96479556	   1690.54571062	    -53.63168494	      2.17914747	      0.00000000	      1.08088395	      0.00000000	      1.35584992	     -0.00000000	      0.00000000	      0.00000000	      0.00000000	      0.00000000	      0.00000000	      0.00000000	      0.00000000	      0.00000000	      0.00000000
     15.01700000	   -217.79540315	   1695.65621431	    -53.82124529	      2.17659792	      0.00000000	      1.08074755	      0.00000000	      1.30590583	     -0.00000000	      0.00000000	      0.00000000	      0.00000000	      0.00000000	      0.00000000	      0.00000000	      0.00000000	      0.00000000	      0.00000000
     15.01800000	   -215.23452877	   1699.96628396	    -53.96794806	      2.17398676	      0.00000000	      1.08061417	      0.00000000	      1.25561544	     -0.00000000	      0.00000000	      0.00000000	      0.00000000	      0.00000000	      0.00000000	      0.00000000	      0.00000000	      0.00000000	      0.00000000
     15.01900000	   -212.67365439	   1704.27635362	    -54.11465084	      2.17137559	      0.00000000	      1.08048079	      0.00000000	      1.20532505	     -0.00000000	      0.00000000	      0.00000000	      0.00000000	      0.00000000	      0.00000000	      0.00000000	      0.00000000	      0.00000000	      0.00000000
     15.02000000	   -210.11278001	   1708.58642327	    -54.26135362	      2.16876443	      0.00000000	      1.08034741	      0.00000000	      1.15503465	     -0.00000000	      0.00000000	      0.00000000	      0.00000000	      0.00000000	      0.00000000	      0.00000000	      0.00000000	      0.00000000	      0.00000000
     15.02100000	   -207.01043485	   1711.73339278	    -54.34293256	      2.16607363	      0.00000000	      1.08022065	      0.00000000	      1.10458643	     -0.00000000	      0.00000000	      0.00000000	      0.00000000	      0.00000000	      0.00000000	      0.00000000	      0.00000000	      0.00000000	      0.00000000
     15.02200000	   -203.90808969	   1714.88036229	    -54.42451151	      2.16338283	      0.00000000	      1.08009388	      0.00000000	      1.05413821	     -0.00000000	      0.00000000	      0.00000000	      0.00000000	      0.00000000	      0.00000000	      0.00000000	      0.00000000	      0.00000000	      0.00000000
     15.02300000	   -200.80574453	   1718.02733180	    -54.50609046	      2.16069204	      0.00000000	      1.07996711	      0.00000000	      1.00368999	     -0.00000000	      0.00000000	      0.00000000	      0.00000000	      0.00000000	      0.00000000	      0.00000000	      0.00000000	      0.00000000	      0.00000000
     15.02400000	   -197.38072069	   1720.41433094	    -54.54314678	      2.15795781	      0.00000000	      1.07984574	      0.00000000	      0.95350328	     -0.00000000	      0.00000000	      0.00000000	      0.00000000	      0.00000000	      0.00000000	      0.00000000	      0.00000000	      0.00000000	      0.00000000
     15.02500000	   -193.79435750	   1722.42134490	    -54.55794178	      2.15520188	      0.00000000	      1.07972706	      0.00000000	      0.90344733	     -0.00000000	      0.00000000	      0.00000000	      0.00000000	      0.00000000	      0.00000000	      0.00000000	      0.00000000	      0.00000000	      0.00000000
     15.02600000	   -190.20799431	   1724.42835886	    -54.57273678	      2.15244594	      0.00000000	      1.07960838	      0.00000000	      0.85339138	     -0.00000000	      0.00000000	      0.00000000	      0.00000000	      0.00000000	      0.00000000	      0.00000000	      0.00000000	      0.00000000	      0.00000000
     15.02700000	   -186.48244373	   1726.05902765	    -54.56458632	      2.14967351	      0.00000000	      1.07949269	      0.00000000	      0.80367557	     -0.00000000	      0.00000000	      0.00000000	      0.00000000	      0.00000000	      0.00000000	      0.00000000	      0.00000000	      0.00000000	      0.00000000
     15.02800000	   -182.47851837	   1726.93700609	    -54.51054493	      2.14686809	      0.00000000	      1.07938297	      0.00000000	      0.75464003	     -0.00000000	      0.00000000	      0.00000000	      0.00000000	      0.00000000	      0.00000000	      0.00000000	      0.00000000	      0.00000000	      0.00000000
     15.02900000	   -178.47459302	   1727.81498454	    -54.45650354	      2.14406267	      0.00000000	      1.07927326	      0.00000000	      0.70560449	     -0.00000000	      0.00000000	      0.00000000	      0.00000000	      0.00000000	      0.00000000	      0.00000000	      0.00000000	      0.00000000	      0.00000000
     15.03000000	   -174.47066766	   1728.69296298	    -54.40246214	      2.14125724	      0.00000000	      1.07916354	     -0.00000000	      0.65656895	     -0.00000000	      0.00000000	      0.00000000	      0.00000000	      0.00000000	      0.00000000	      0.00000000	      0.00000000	      0.00000000	      0.00000000
     15.03100000	   -170.12170323	   1728.44337895	    -54.27748692	      2.13841854	      0.00000000	      1.07906304	     -0.00000000	      0.60916592	     -0.00000000	      0.00000000	      0.00000000	      0.00000000	      0.00000000	      0.00000000	      0.00000000	      0.00000000	      0.00000000	      0.00000000
     15.03200000	   -165.77273880	   1728.19379493	    -54.15251170	      2.13557983	      0.00000000	      1.07896255	     -0.00000000	      0.56176289	     -0.00000000	      0.00000000	      0.00000000	      0.00000000	      0.00000000	      0.00000000	      0.00000000	      0.00000000	      0.00000000	      0.00000000
     15.03300000	   -161.42377438	   1727.94421090	    -54.02753648	      2.13274113	      0.00000000	      1.07886205	     -0.00000000	      0.51435985	     -0.00000000	      0.00000000	      0.00000000	      0.00000000	      0.00000000	      0.00000000	      0.00000000	      0.00000000	      0.00000000	      0.00000000
     15.03400000	   -156.89516257	   1726.93970800	    -53.85400863	      2.12989101	      0.00000000	      1.07876749	     -0.00000000	      0.46839568	     -0.00000000	      0.00000000	      0.00000000	      0.00000000	      0.00000000	      0.00000000	      0.00000000	      0.00000000	      0.00000000	      0.00000000
     15.03500000	   -152.27672707	   1725.55774566	    -53.65620448	      2.12703518	      0.00000000	      1.07867588	     -0.00000000	      0.42315095	     -0.00000000	      0.00000000	      0.00000000	      0.00000000	      0.00000000	      0.00000000	      0.00000000	      0.00000000	      0.00000000	      0.00000000
